<svg width="32" height="32" viewBox="0 0 32 32" fill="none" xmlns="http://www.w3.org/2000/svg">
<path d="M27 12C27 10.4792 26.7083 9.05208 26.125 7.71875C25.5625 6.38542 24.7812 5.21875 23.7812 4.21875C22.7812 3.21875 21.6146 2.42708 20.2812 1.84375C18.9479 1.28125 17.5208 1 16 1C14.4792 1 13.0521 1.28125 11.7188 1.84375C10.3854 2.42708 9.21875 3.21875 8.21875 4.21875C7.21875 5.21875 6.4375 6.38542 5.875 7.71875C5.29167 9.05208 5 10.4792 5 12C5 13.7083 5.35938 15.2917 6.07812 16.75C6.79688 18.2083 7.76042 19.4479 8.96875 20.4688H9V30C9 30.2708 9.09896 30.5052 9.29688 30.7031C9.49479 30.901 9.72917 31 10 31C10.0833 31 10.1615 30.9896 10.2344 30.9688C10.3073 30.9479 10.3854 30.9271 10.4688 30.9062H10.4375L16 28.125L21.5625 30.9062C21.625 30.9271 21.6927 30.9479 21.7656 30.9688C21.8385 30.9896 21.9167 31 22 31C22.2708 31 22.5052 30.901 22.7031 30.7031C22.901 30.5052 23 30.2708 23 30V20.4688C24.2292 19.4688 25.2031 18.2344 25.9219 16.7656C26.6406 15.2969 27 13.7083 27 12ZM7 12C7 10.75 7.23958 9.58333 7.71875 8.5C8.17708 7.39583 8.8125 6.4375 9.625 5.625C10.4375 4.8125 11.3958 4.17708 12.5 3.71875C13.5833 3.23958 14.75 3 16 3C17.25 3 18.4167 3.23958 19.5 3.71875C20.6042 4.17708 21.5625 4.8125 22.375 5.625C23.1875 6.4375 23.8229 7.39583 24.2812 8.5C24.7604 9.58333 25 10.75 25 12C25 13.25 24.7604 14.4167 24.2812 15.5C23.8229 16.6042 23.1875 17.5625 22.375 18.375C21.5625 19.1875 20.6042 19.8229 19.5 20.2812C18.4167 20.7604 17.25 21 16 21C14.75 21 13.5833 20.7604 12.5 20.2812C11.4167 19.8229 10.4635 19.1823 9.64062 18.3594C8.81771 17.5365 8.17708 16.5833 7.71875 15.5C7.23958 14.4167 7 13.25 7 12ZM21 28.375L16.4375 26.0938C16.375 26.0729 16.3073 26.0521 16.2344 26.0312C16.1615 26.0104 16.0833 26 16 26C15.9167 26 15.8385 26.0104 15.7656 26.0312C15.6927 26.0521 15.6146 26.0729 15.5312 26.0938H15.5625L11 28.375V21.7812C11.7292 22.1771 12.5156 22.4792 13.3594 22.6875C14.2031 22.8958 15.0833 23 16 23C16.9167 23 17.8021 22.8906 18.6562 22.6719C19.5104 22.4531 20.3125 22.1562 21.0625 21.7812H21V28.375ZM16 19C16.9583 19 17.8646 18.8125 18.7188 18.4375C19.5729 18.0833 20.3177 17.5885 20.9531 16.9531C21.5885 16.3177 22.0833 15.5729 22.4375 14.7188C22.8125 13.8646 23 12.9583 23 12C23 11.0417 22.8125 10.1354 22.4375 9.28125C22.0833 8.42708 21.5885 7.68229 20.9531 7.04688C20.3177 6.41146 19.5729 5.91667 18.7188 5.5625C17.8646 5.1875 16.9583 5 16 5C15.0417 5 14.1354 5.1875 13.2812 5.5625C12.4271 5.91667 11.6823 6.41146 11.0469 7.04688C10.4115 7.68229 9.91667 8.42708 9.5625 9.28125C9.1875 10.1354 9 11.0417 9 12C9 12.9583 9.1875 13.8646 9.5625 14.7188C9.91667 15.5729 10.4115 16.3177 11.0469 16.9531C11.6823 17.5885 12.4271 18.0833 13.2812 18.4375C14.1354 18.8125 15.0417 19 16 19ZM16 7C17.375 7 18.5521 7.48958 19.5312 8.46875C20.5104 9.44792 21 10.625 21 12C21 13.375 20.5104 14.5521 19.5312 15.5312C18.5521 16.5104 17.375 17 16 17C14.625 17 13.4479 16.5104 12.4688 15.5312C11.4896 14.5521 11 13.375 11 12C11 10.625 11.4896 9.44792 12.4688 8.46875C13.4479 7.48958 14.625 7 16 7Z" fill="#E91E63"/>
</svg>
