<svg width="20" height="22" viewBox="0 0 20 22" fill="none" xmlns="http://www.w3.org/2000/svg">
<path d="M5.30262 6.43077V5.30256C5.30262 4.10569 5.77807 2.95783 6.62439 2.11152C7.47071 1.2652 8.61856 0.789742 9.81544 0.789742C11.0123 0.789742 12.1602 1.2652 13.0065 2.11152C13.8528 2.95783 14.3283 4.10569 14.3283 5.30256V6.43077M5.30262 6.43077C3.17482 6.43077 2.11205 6.43077 1.45092 7.0919C0.789795 7.75302 0.789795 8.81579 0.789795 10.9436V12.0718C0.789795 16.3263 0.790923 18.4529 2.11205 19.7752C3.43318 21.0974 5.56097 21.0974 9.81544 21.0974C14.0699 21.0974 16.1966 21.0963 17.5188 19.7752C18.8411 18.454 18.8411 16.3263 18.8411 12.0718V10.9436C18.8411 8.81579 18.8411 7.75302 18.1799 7.0919C17.5188 6.43077 16.4561 6.43077 14.3283 6.43077M5.30262 6.43077H14.3283M13.2001 13.2V10.9436M6.43082 13.2V10.9436" stroke="white" stroke-width="1.57949" stroke-linecap="round"/>
</svg>
