<svg width="32" height="32" viewBox="0 0 32 32" fill="none" xmlns="http://www.w3.org/2000/svg">
<path d="M26.7188 22.7188L22.7188 26.7188C22.6146 26.8021 22.5052 26.8698 22.3906 26.9219C22.276 26.974 22.1458 27 22 27C21.7292 27 21.4948 26.901 21.2969 26.7031C21.099 26.5052 21 26.2708 21 26C21 25.8542 21.026 25.724 21.0781 25.6094C21.1302 25.4948 21.1979 25.3854 21.2812 25.2812L23.5938 23H6C5.72917 23 5.49479 22.901 5.29688 22.7031C5.09896 22.5052 5 22.2708 5 22C5 21.7292 5.09896 21.4948 5.29688 21.2969C5.49479 21.099 5.72917 21 6 21H23.5938L21.2812 18.7188C21.1979 18.6146 21.1302 18.5052 21.0781 18.3906C21.026 18.276 21 18.1458 21 18C21 17.7292 21.099 17.4948 21.2969 17.2969C21.4948 17.099 21.7292 17 22 17C22.1458 17 22.276 17.026 22.3906 17.0781C22.5052 17.1302 22.6146 17.1979 22.7188 17.2812L26.7188 21.2812C26.8021 21.3854 26.8698 21.4948 26.9219 21.6094C26.974 21.724 27 21.8542 27 22C27 22.1458 26.974 22.276 26.9219 22.3906C26.8698 22.5052 26.8021 22.6146 26.7188 22.7188ZM9.28125 14.7188C9.38542 14.8021 9.49479 14.8698 9.60938 14.9219C9.72396 14.974 9.85417 15 10 15C10.2708 15 10.5052 14.901 10.7031 14.7031C10.901 14.5052 11 14.2708 11 14C11 13.8542 10.974 13.724 10.9219 13.6094C10.8698 13.4948 10.8021 13.3854 10.7188 13.2812L8.40625 11H26C26.2708 11 26.5052 10.901 26.7031 10.7031C26.901 10.5052 27 10.2708 27 10C27 9.72917 26.901 9.49479 26.7031 9.29688C26.5052 9.09896 26.2708 9 26 9H8.40625L10.7188 6.71875C10.8021 6.61458 10.8698 6.50521 10.9219 6.39062C10.974 6.27604 11 6.14583 11 6C11 5.72917 10.901 5.49479 10.7031 5.29688C10.5052 5.09896 10.2708 5 10 5C9.85417 5 9.72396 5.02604 9.60938 5.07812C9.49479 5.13021 9.38542 5.19792 9.28125 5.28125L5.28125 9.28125C5.19792 9.38542 5.13021 9.49479 5.07812 9.60938C5.02604 9.72396 5 9.85417 5 10C5 10.1458 5.02604 10.276 5.07812 10.3906C5.13021 10.5052 5.19792 10.6146 5.28125 10.7188L9.28125 14.7188Z" fill="#E91E63"/>
</svg>
