<svg width="32" height="32" viewBox="0 0 32 32" fill="none" xmlns="http://www.w3.org/2000/svg">
<path d="M31.9375 14.625L30.1875 10.25C30.0208 9.875 29.776 9.57292 29.4531 9.34375C29.1302 9.11458 28.7604 9 28.3438 9C28.3229 9 28.3125 9 28.3125 9H24V8C24 7.72917 23.901 7.49479 23.7031 7.29688C23.5052 7.09896 23.2708 7 23 7H4C3.4375 7 2.96354 7.19271 2.57812 7.57812C2.19271 7.96354 2 8.4375 2 9V23C2 23.5625 2.19271 24.0365 2.57812 24.4219C2.96354 24.8073 3.4375 25 4 25H6.125C6.35417 25.875 6.82292 26.5938 7.53125 27.1562C8.23958 27.7188 9.0625 28 10 28C10.9375 28 11.7604 27.7188 12.4688 27.1562C13.1771 26.5938 13.6458 25.8854 13.875 25.0312V25H20.125C20.3542 25.875 20.8229 26.5938 21.5312 27.1562C22.2396 27.7188 23.0625 28 24 28C24.9375 28 25.7604 27.7188 26.4688 27.1562C27.1771 26.5938 27.6458 25.8854 27.875 25.0312V25H30C30.5625 25 31.0365 24.8073 31.4219 24.4219C31.8073 24.0365 32 23.5625 32 23V15C32 14.9375 31.9948 14.875 31.9844 14.8125C31.974 14.75 31.9583 14.6875 31.9375 14.625ZM24 11H28.3125L29.5312 14H24V11ZM4 9H22V17H4V9ZM10 26C9.4375 26 8.96354 25.8073 8.57812 25.4219C8.19271 25.0365 8 24.5625 8 24C8 23.4375 8.19271 22.9635 8.57812 22.5781C8.96354 22.1927 9.4375 22 10 22C10.5625 22 11.0365 22.1927 11.4219 22.5781C11.8073 22.9635 12 23.4375 12 24C12 24.5625 11.8073 25.0365 11.4219 25.4219C11.0365 25.8073 10.5625 26 10 26ZM20.125 23H13.875C13.6458 22.125 13.1771 21.4062 12.4688 20.8438C11.7604 20.2812 10.9375 20 10 20C9.0625 20 8.23958 20.2812 7.53125 20.8438C6.82292 21.4062 6.35417 22.1146 6.125 22.9688V23H4V19H22V20.5312C21.5417 20.8021 21.151 21.1458 20.8281 21.5625C20.5052 21.9792 20.2708 22.4479 20.125 22.9688V23ZM24 26C23.4375 26 22.9635 25.8073 22.5781 25.4219C22.1927 25.0365 22 24.5625 22 24C22 23.4375 22.1927 22.9635 22.5781 22.5781C22.9635 22.1927 23.4375 22 24 22C24.5625 22 25.0365 22.1927 25.4219 22.5781C25.8073 22.9635 26 23.4375 26 24C26 24.5625 25.8073 25.0365 25.4219 25.4219C25.0365 25.8073 24.5625 26 24 26ZM30 23H27.875C27.6458 22.125 27.1719 21.4062 26.4531 20.8438C25.7344 20.2812 24.9167 20 24 20V16H30V23Z" fill="#E91E63"/>
</svg>
