<svg width="42" height="44" viewBox="0 0 42 44" fill="none" xmlns="http://www.w3.org/2000/svg">
<path d="M41.4464 19.8443L39.1754 14.1668C38.9591 13.6801 38.6414 13.2881 38.2224 12.9907C37.8033 12.6933 37.3234 12.5446 36.7827 12.5446C36.7827 12.5446 36.7759 12.5446 36.7624 12.5446C36.7489 12.5446 36.7421 12.5446 36.7421 12.5446H31.1457V11.2469C31.1457 10.8954 31.0173 10.5913 30.7604 10.3344C30.5036 10.0776 30.1994 9.94915 29.848 9.94915H5.19116C4.46119 9.94915 3.84612 10.1992 3.34595 10.6994C2.84579 11.1996 2.5957 11.8146 2.5957 12.5446V30.7128C2.5957 31.4428 2.84579 32.0578 3.34595 32.558C3.84612 33.0582 4.46119 33.3082 5.19116 33.3082H7.94883C8.24622 34.4437 8.85453 35.3765 9.77376 36.1065C10.693 36.8364 11.7609 37.2014 12.9775 37.2014C14.1941 37.2014 15.2621 36.8364 16.1813 36.1065C17.1005 35.3765 17.7088 34.4573 18.0062 33.3488V33.3082H26.117C26.4144 34.4437 27.0227 35.3765 27.9419 36.1065C28.8612 36.8364 29.9291 37.2014 31.1457 37.2014C32.3623 37.2014 33.4302 36.8364 34.3495 36.1065C35.2687 35.3765 35.877 34.4573 36.1744 33.3488V33.3082H38.9321C39.662 33.3082 40.2771 33.0582 40.7773 32.558C41.2774 32.0578 41.5275 31.4428 41.5275 30.7128V20.331C41.5275 20.2499 41.5208 20.1688 41.5072 20.0876C41.4937 20.0065 41.4734 19.9254 41.4464 19.8443ZM12.9775 34.606C12.2475 34.606 11.6325 34.3559 11.1323 33.8557C10.6321 33.3556 10.3821 32.7405 10.3821 32.0105C10.3821 31.2805 10.6321 30.6655 11.1323 30.1653C11.6325 29.6651 12.2475 29.4151 12.9775 29.4151C13.7075 29.4151 14.3226 29.6651 14.8227 30.1653C15.3229 30.6655 15.573 31.2805 15.573 32.0105C15.573 32.7405 15.3229 33.3556 14.8227 33.8557C14.3226 34.3559 13.7075 34.606 12.9775 34.606ZM5.19116 22.9264V12.5446H28.5502V22.9264H5.19116ZM31.1457 34.606C30.4157 34.606 29.8007 34.3559 29.3005 33.8557C28.8003 33.3556 28.5502 32.7405 28.5502 32.0105C28.5502 31.2805 28.8003 30.6655 29.3005 30.1653C29.8007 29.6651 30.4157 29.4151 31.1457 29.4151C31.8757 29.4151 32.4907 29.6651 32.9909 30.1653C33.4911 30.6655 33.7412 31.2805 33.7412 32.0105C33.7412 32.7405 33.4911 33.3556 32.9909 33.8557C32.4907 34.3559 31.8757 34.606 31.1457 34.606ZM31.1457 19.0332V15.1401H36.7421L38.3238 19.0332H31.1457Z" fill="#8B1E3F"/>
</svg>
