<svg width="42" height="44" viewBox="0 0 42 44" fill="none" xmlns="http://www.w3.org/2000/svg">
<path d="M35.0393 16.4379C35.0393 14.4643 34.6608 12.6123 33.9037 10.882C33.1738 9.15172 32.1599 7.6377 30.8622 6.33998C29.5645 5.04225 28.0505 4.01488 26.3202 3.25787C24.5898 2.5279 22.7379 2.16292 20.7643 2.16292C18.7906 2.16292 16.9387 2.5279 15.2084 3.25787C13.4781 4.01488 11.964 5.04225 10.6663 6.33998C9.36859 7.6377 8.35474 9.15172 7.62477 10.882C6.86776 12.6123 6.48926 14.4643 6.48926 16.4379C6.48926 18.6549 6.95563 20.7096 7.88837 22.6021C8.82111 24.4946 10.0715 26.1033 11.6396 27.428H11.6802V39.797C11.6802 40.1485 11.8086 40.4526 12.0654 40.7095C12.3223 40.9663 12.6264 41.0947 12.9779 41.0947C13.086 41.0947 13.1874 41.0812 13.282 41.0542C13.3767 41.0271 13.4781 41.0001 13.5862 40.9731H13.5456L20.7643 37.3638L27.9829 40.9731C28.064 41.0001 28.1518 41.0271 28.2465 41.0542C28.3411 41.0812 28.4425 41.0947 28.5506 41.0947C28.9021 41.0947 29.2062 40.9663 29.4631 40.7095C29.7199 40.4526 29.8483 40.1485 29.8483 39.797V27.428C31.4435 26.1303 32.7074 24.5284 33.6401 22.6224C34.5729 20.7164 35.0393 18.6549 35.0393 16.4379ZM9.08471 16.4379C9.08471 14.8158 9.39563 13.3017 10.0175 11.8959C10.6122 10.463 11.4368 9.21931 12.4912 8.16491C13.5456 7.1105 14.7893 6.2859 16.2222 5.69111C17.6281 5.06929 19.1421 4.75837 20.7643 4.75837C22.3864 4.75837 23.9004 5.06929 25.3063 5.69111C26.7392 6.2859 27.9829 7.1105 29.0373 8.16491C30.0917 9.21931 30.9163 10.463 31.5111 11.8959C32.1329 13.3017 32.4438 14.8158 32.4438 16.4379C32.4438 18.0601 32.1329 19.5741 31.5111 20.98C30.9163 22.4129 30.0917 23.6565 29.0373 24.7109C27.9829 25.7653 26.7392 26.5899 25.3063 27.1847C23.9004 27.8065 22.3864 28.1175 20.7643 28.1175C19.1421 28.1175 17.6281 27.8065 16.2222 27.1847C14.8163 26.5899 13.5794 25.7586 12.5115 24.6906C11.4436 23.6227 10.6122 22.3858 10.0175 20.98C9.39563 19.5741 9.08471 18.0601 9.08471 16.4379ZM11.6802 16.4379C11.6802 15.1943 11.9235 14.0182 12.4101 12.9097C12.8697 11.8012 13.5119 10.8347 14.3365 10.0101C15.161 9.18551 16.1276 8.54341 17.2361 8.0838C18.3445 7.59715 19.5206 7.35382 20.7643 7.35382C22.0079 7.35382 23.184 7.59715 24.2925 8.0838C25.4009 8.54341 26.3675 9.18551 27.1921 10.0101C28.0167 10.8347 28.6588 11.8012 29.1184 12.9097C29.605 14.0182 29.8483 15.1943 29.8483 16.4379C29.8483 17.6816 29.605 18.8576 29.1184 19.9661C28.6588 21.0746 28.0167 22.0411 27.1921 22.8657C26.3675 23.6903 25.4009 24.3324 24.2925 24.792C23.184 25.2787 22.0079 25.522 20.7643 25.522C19.5206 25.522 18.3445 25.2787 17.2361 24.792C16.1276 24.3324 15.161 23.6903 14.3365 22.8657C13.5119 22.0411 12.8697 21.0746 12.4101 19.9661C11.9235 18.8576 11.6802 17.6816 11.6802 16.4379Z" fill="#8B1E3F"/>
</svg>
