<svg width="28" height="29" viewBox="0 0 28 29" fill="none" xmlns="http://www.w3.org/2000/svg">
<path d="M18.8268 4.79488C17.7338 4.79488 16.729 5.01964 15.8123 5.46916C14.8957 5.91868 14.1377 6.54007 13.5383 7.33334C12.9389 6.54007 12.1809 5.91868 11.2643 5.46916C10.3476 5.01964 9.34278 4.79488 8.24983 4.79488C7.35079 4.79488 6.50464 4.97116 5.71137 5.32372C4.90047 5.65866 4.19975 6.1214 3.60921 6.71195C3.01866 7.30249 2.55592 8.00321 2.22098 8.81411C1.86842 9.60738 1.69214 10.4535 1.69214 11.3526C1.69214 13.2035 2.26506 14.9399 3.41089 16.5617C4.55672 18.2011 5.83036 19.6334 7.2318 20.8586C8.63324 22.0837 9.94214 23.0665 11.1585 23.8069C12.3572 24.5297 13.0183 24.9263 13.1417 24.9968C13.1945 25.0321 13.2562 25.0585 13.3268 25.0761C13.3973 25.0938 13.4678 25.1026 13.5383 25.1026C13.6088 25.1026 13.6793 25.0938 13.7498 25.0761C13.8203 25.0585 13.882 25.0321 13.9349 24.9968C14.0583 24.9263 14.7194 24.5297 15.9181 23.8069C17.1344 23.0665 18.4433 22.0837 19.8448 20.8586C21.2462 19.6334 22.5199 18.2011 23.6657 16.5617C24.8115 14.9399 25.3844 13.2035 25.3844 11.3526C25.3844 10.4535 25.2082 9.60738 24.8556 8.81411C24.5207 8.00321 24.0579 7.30249 23.4674 6.71195C22.8768 6.1214 22.1761 5.65866 21.3652 5.32372C20.5719 4.97116 19.7258 4.79488 18.8268 4.79488ZM13.5383 23.2781C13.0623 22.996 12.2602 22.4848 11.132 21.7444C10.0215 21.004 8.88885 20.1006 7.73421 19.0341C6.57956 17.9676 5.57034 16.7732 4.70656 15.4511C3.82515 14.1466 3.38445 12.7805 3.38445 11.3526C3.38445 10.0128 3.86041 8.86699 4.81233 7.91507C5.76425 6.96315 6.91009 6.48719 8.24983 6.48719C9.27227 6.48719 10.1889 6.7428 10.9998 7.25401C11.8107 7.76523 12.3925 8.46154 12.745 9.34296C12.8155 9.50161 12.9213 9.62941 13.0623 9.72637C13.2034 9.82332 13.362 9.8718 13.5383 9.8718C13.7146 9.8718 13.8732 9.82332 14.0143 9.72637C14.1553 9.62941 14.261 9.50161 14.3316 9.34296C14.6841 8.46154 15.2659 7.76523 16.0768 7.25401C16.8877 6.7428 17.8043 6.48719 18.8268 6.48719C20.1665 6.48719 21.3123 6.96315 22.2643 7.91507C23.2162 8.86699 23.6921 10.0128 23.6921 11.3526C23.6921 12.7628 23.2514 14.129 22.37 15.4511C21.5062 16.7732 20.497 17.9676 19.3424 19.0341C18.1877 20.1006 17.0551 21.004 15.9445 21.7444C14.8163 22.4848 14.0143 22.996 13.5383 23.2781Z" fill="white"/>
</svg>
