<svg width="32" height="32" viewBox="0 0 32 32" fill="none" xmlns="http://www.w3.org/2000/svg">
<path d="M24.6875 16.125L18.25 13.75L15.875 7.3125C15.7292 6.91667 15.4896 6.59896 15.1562 6.35938C14.8229 6.11979 14.4375 6 14 6C13.5833 6 13.2031 6.11979 12.8594 6.35938C12.5156 6.59896 12.2812 6.90625 12.1562 7.28125L12.125 7.3125L9.75 13.75L3.3125 16.125C2.91667 16.2708 2.59896 16.5104 2.35938 16.8438C2.11979 17.1771 2 17.5625 2 18C2 18.4167 2.11979 18.7969 2.35938 19.1406C2.59896 19.4844 2.90625 19.7188 3.28125 19.8438L3.3125 19.875L9.75 22.25L12.125 28.6875C12.2708 29.0833 12.5104 29.401 12.8438 29.6406C13.1771 29.8802 13.5625 30 14 30C14.4167 30 14.7969 29.8802 15.1406 29.6406C15.4844 29.401 15.7188 29.0938 15.8438 28.7188L15.875 28.6875L18.25 22.25L24.6875 19.875C25.0833 19.7292 25.401 19.4896 25.6406 19.1562C25.8802 18.8229 26 18.4375 26 18C26 17.5833 25.8802 17.2031 25.6406 16.8594C25.401 16.5156 25.0938 16.2812 24.7188 16.1562L24.6875 16.125ZM17.125 20.5312C16.9792 20.5729 16.8594 20.6458 16.7656 20.75C16.6719 20.8542 16.5938 20.9792 16.5312 21.125L14 27.9688L11.4688 21.125C11.4271 20.9792 11.3542 20.8542 11.25 20.75C11.1458 20.6458 11.0208 20.5729 10.875 20.5312L4.03125 18L10.875 15.4688C11.0208 15.4271 11.1458 15.3542 11.25 15.25C11.3542 15.1458 11.4271 15.0208 11.4688 14.875L14 8.03125L16.5312 14.875C16.5729 15.0208 16.6458 15.1406 16.75 15.2344C16.8542 15.3281 16.9792 15.4062 17.125 15.4688L23.9688 18L17.125 20.5312ZM18 5C18 4.72917 18.099 4.49479 18.2969 4.29688C18.4948 4.09896 18.7292 4 19 4H21V2C21 1.72917 21.099 1.49479 21.2969 1.29688C21.4948 1.09896 21.7292 1 22 1C22.2708 1 22.5052 1.09896 22.7031 1.29688C22.901 1.49479 23 1.72917 23 2V4H25C25.2708 4 25.5052 4.09896 25.7031 4.29688C25.901 4.49479 26 4.72917 26 5C26 5.27083 25.901 5.50521 25.7031 5.70312C25.5052 5.90104 25.2708 6 25 6H23V8C23 8.27083 22.901 8.50521 22.7031 8.70312C22.5052 8.90104 22.2708 9 22 9C21.7292 9 21.4948 8.90104 21.2969 8.70312C21.099 8.50521 21 8.27083 21 8V6H19C18.7292 6 18.4948 5.90104 18.2969 5.70312C18.099 5.50521 18 5.27083 18 5ZM31 11C31 11.2708 30.901 11.5052 30.7031 11.7031C30.5052 11.901 30.2708 12 30 12H29V13C29 13.2708 28.901 13.5052 28.7031 13.7031C28.5052 13.901 28.2708 14 28 14C27.7292 14 27.4948 13.901 27.2969 13.7031C27.099 13.5052 27 13.2708 27 13V12H26C25.7292 12 25.4948 11.901 25.2969 11.7031C25.099 11.5052 25 11.2708 25 11C25 10.7292 25.099 10.4948 25.2969 10.2969C25.4948 10.099 25.7292 10 26 10H27V9C27 8.72917 27.099 8.49479 27.2969 8.29688C27.4948 8.09896 27.7292 8 28 8C28.2708 8 28.5052 8.09896 28.7031 8.29688C28.901 8.49479 29 8.72917 29 9V10H30C30.2708 10 30.5052 10.099 30.7031 10.2969C30.901 10.4948 31 10.7292 31 11Z" fill="#E91E63"/>
</svg>
