<svg width="20" height="20" viewBox="0 0 20 20" fill="none" xmlns="http://www.w3.org/2000/svg">
<path d="M0 9.75C0 15.135 4.365 19.5 9.75 19.5C15.135 19.5 19.5 15.135 19.5 9.75C19.5 4.365 15.135 0 9.75 0C4.365 0 0 4.365 0 9.75ZM4.999 6.419C6.048 4.862 7.989 3.843 10.779 4.239C12.387 4.469 13.559 5.278 14.296 6.374C15.022 7.454 15.302 8.772 15.226 10.021C15.15 11.268 14.716 12.51 13.931 13.433C13.131 14.373 11.971 14.973 10.543 14.868C9.703 14.808 9.06 14.458 8.6 13.945C8.225 15.475 7.838 17.083 7.52 18.425C7.49722 18.5209 7.45577 18.6113 7.39804 18.6912C7.3403 18.771 7.2674 18.8387 7.18351 18.8904C7.09961 18.942 7.00635 18.9767 6.90907 18.9923C6.81178 19.008 6.71236 19.0043 6.6165 18.9815C6.52064 18.9587 6.4302 18.9173 6.35035 18.8595C6.2705 18.8018 6.2028 18.7289 6.15113 18.645C6.09945 18.5611 6.06481 18.4679 6.04917 18.3706C6.03354 18.2733 6.03722 18.1739 6.06 18.078C6.58179 15.8795 7.11513 13.6838 7.66 11.491C7.565 10.489 7.697 9.496 7.858 8.929C7.92178 8.67888 8.02909 8.44193 8.175 8.229C8.243 8.139 8.361 8.002 8.543 7.911C8.67402 7.84485 8.82024 7.81463 8.96675 7.82341C9.11326 7.83219 9.25482 7.87967 9.377 7.961C9.614 8.121 9.702 8.352 9.737 8.471C9.776 8.608 9.787 8.746 9.787 8.866C9.787 9.109 9.742 9.396 9.658 9.716C9.524 10.232 9.361 10.873 9.182 11.588C9.255 12.088 9.4 12.517 9.619 12.822C9.836 13.123 10.145 13.336 10.652 13.372C11.552 13.438 12.264 13.079 12.788 12.462C13.328 11.827 13.668 10.912 13.728 9.931C13.788 8.952 13.563 7.972 13.051 7.211C12.551 6.466 11.754 5.893 10.568 5.725C8.287 5.401 6.938 6.225 6.242 7.257C5.506 8.349 5.45 9.731 5.875 10.599C5.95452 10.7764 5.96203 10.9778 5.89595 11.1606C5.82987 11.3435 5.69536 11.4935 5.52079 11.5791C5.34622 11.6647 5.14523 11.6792 4.96021 11.6195C4.77518 11.5598 4.62058 11.4305 4.529 11.259C3.846 9.866 3.989 7.915 4.999 6.419Z" fill="black"/>
</svg>
