<svg width="42" height="44" viewBox="0 0 42 44" fill="none" xmlns="http://www.w3.org/2000/svg">
<path d="M33.7404 13.8423H28.5495V9.94915C28.5495 7.78627 27.7925 5.94782 26.2785 4.43381C24.7645 2.91979 22.926 2.16278 20.7632 2.16278C18.6003 2.16278 16.7618 2.91979 15.2478 4.43381C13.7338 5.94782 12.9768 7.78627 12.9768 9.94915V13.8423H7.78588C7.05591 13.8423 6.44084 14.0924 5.94068 14.5926C5.44051 15.0927 5.19043 15.7078 5.19043 16.4378V34.606C5.19043 35.3359 5.44051 35.951 5.94068 36.4512C6.44084 36.9513 7.05591 37.2014 7.78588 37.2014H33.7404C34.4704 37.2014 35.0855 36.9513 35.5856 36.4512C36.0858 35.951 36.3359 35.3359 36.3359 34.606V16.4378C36.3359 15.7078 36.0858 15.0927 35.5856 14.5926C35.0855 14.0924 34.4704 13.8423 33.7404 13.8423ZM22.0609 26.6168V30.7128C22.0609 31.0643 21.9325 31.3684 21.6756 31.6252C21.4188 31.8821 21.1146 32.0105 20.7632 32.0105C20.4117 32.0105 20.1075 31.8821 19.8507 31.6252C19.5939 31.3684 19.4654 31.0643 19.4654 30.7128V26.6168C18.7084 26.3194 18.0866 25.8395 17.5999 25.1772C17.1133 24.5148 16.87 23.7645 16.87 22.9264C16.87 21.845 17.2485 20.9258 18.0055 20.1688C18.7625 19.4117 19.6817 19.0332 20.7632 19.0332C21.8446 19.0332 22.7638 19.4117 23.5208 20.1688C24.2778 20.9258 24.6563 21.845 24.6563 22.9264C24.6563 23.7645 24.413 24.5148 23.9264 25.1772C23.4397 25.8395 22.8314 26.3059 22.1014 26.5763L22.0609 26.6168ZM25.9541 13.8423H15.5722V9.94915C15.5722 8.51624 16.0792 7.29286 17.093 6.27901C18.1069 5.26516 19.3302 4.75824 20.7632 4.75824C22.1961 4.75824 23.4194 5.26516 24.4333 6.27901C25.4471 7.29286 25.9541 8.51624 25.9541 9.94915V13.8423Z" fill="#8B1E3F"/>
</svg>
