<svg width="32" height="32" viewBox="0 0 32 32" fill="none" xmlns="http://www.w3.org/2000/svg">
<path d="M8.5 28.6699C7.8125 28.6699 7.22417 28.4183 6.735 27.9152C6.24583 27.4121 6.00083 26.8065 6 26.0985V13.2414C6 12.5342 6.245 11.9291 6.735 11.4259C7.225 10.9228 7.81333 10.6708 8.5 10.6699H9.75V8.09849C9.75 6.31992 10.3596 4.80407 11.5787 3.55092C12.7979 2.29778 14.2717 1.67078 16 1.66992C17.7283 1.66907 19.2025 2.29607 20.4225 3.55092C21.6425 4.80578 22.2517 6.32164 22.25 8.09849V10.6699H23.5C24.1875 10.6699 24.7762 10.9219 25.2662 11.4259C25.7562 11.9299 26.0008 12.5351 26 13.2414V26.0985C26 26.8056 25.7554 27.4112 25.2662 27.9152C24.7771 28.4192 24.1883 28.6708 23.5 28.6699H8.5ZM8.5 26.0985H23.5V13.2414H8.5V26.0985ZM17.7662 21.4853C18.2554 20.9831 18.5 20.3779 18.5 19.6699C18.5 18.9619 18.2554 18.3568 17.7662 17.8545C17.2771 17.3522 16.6883 17.1002 16 17.0985C15.3117 17.0968 14.7233 17.3488 14.235 17.8545C13.7467 18.3602 13.5017 18.9653 13.5 19.6699C13.4983 20.3745 13.7433 20.9801 14.235 21.4866C14.7267 21.9932 15.315 22.2448 16 22.2413C16.685 22.2379 17.2737 21.9851 17.7662 21.4853ZM12.25 10.6699H19.75V8.09849C19.75 7.02706 19.3854 6.11635 18.6562 5.36635C17.9271 4.61635 17.0417 4.24135 16 4.24135C14.9583 4.24135 14.0729 4.61635 13.3437 5.36635C12.6146 6.11635 12.25 7.02706 12.25 8.09849V10.6699Z" fill="#E91E63"/>
</svg>
