<svg width="28" height="29" viewBox="0 0 28 29" fill="none" xmlns="http://www.w3.org/2000/svg">
<path d="M24.4328 22.9872C24.0274 22.2997 23.569 21.6563 23.0578 21.0569C22.5466 20.4575 21.9957 19.9155 21.4052 19.4307C20.8146 18.9459 20.1844 18.5273 19.5145 18.1747C18.8447 17.8045 18.1483 17.496 17.4256 17.2492C18.5538 16.5793 19.4572 15.6671 20.1359 14.5124C20.8146 13.3578 21.154 12.093 21.154 10.718C21.154 9.66026 20.9512 8.67308 20.5458 7.75642C20.158 6.82212 19.6203 6.01122 18.9328 5.32372C18.2453 4.63622 17.4344 4.09856 16.5001 3.71074C15.5834 3.3053 14.5963 3.10257 13.5386 3.10257C12.4809 3.10257 11.4937 3.3053 10.577 3.71074C9.64274 4.09856 8.83184 4.63622 8.14434 5.32372C7.45684 6.01122 6.91918 6.82212 6.53136 7.75642C6.12591 8.67308 5.92319 9.66026 5.92319 10.718C5.92319 12.093 6.26253 13.3578 6.94122 14.5124C7.6199 15.6671 8.50572 16.5793 9.59867 17.2492H9.65156C8.9288 17.496 8.23248 17.7957 7.56261 18.1482C6.89274 18.5184 6.26253 18.9459 5.67199 19.4307C5.08144 19.9155 4.53056 20.4575 4.01934 21.0569C3.50813 21.6386 3.04979 22.2821 2.64434 22.9872C2.60909 23.0577 2.58264 23.1282 2.56502 23.1987C2.54739 23.2692 2.53857 23.3486 2.53857 23.4367C2.53857 23.6659 2.6179 23.8642 2.77655 24.0317C2.93521 24.1991 3.13793 24.2829 3.38473 24.2829C3.54338 24.2829 3.68881 24.2432 3.82103 24.1639C3.95324 24.0845 4.0546 23.9744 4.12511 23.8333C4.6187 22.9696 5.20043 22.2027 5.87031 21.5329C6.55781 20.8454 7.307 20.2636 8.1179 19.7877C8.9288 19.3117 9.79258 18.9503 10.7092 18.7035C11.6259 18.4567 12.569 18.3333 13.5386 18.3333C14.5081 18.3333 15.4512 18.4567 16.3679 18.7035C17.2846 18.9503 18.1483 19.3117 18.9592 19.7877C19.7701 20.2636 20.5193 20.8454 21.2068 21.5329C21.8767 22.2027 22.4584 22.9696 22.952 23.8333C23.0225 23.9744 23.1239 24.0845 23.2561 24.1639C23.3883 24.2432 23.5338 24.2829 23.6924 24.2829C23.9392 24.2829 24.1419 24.1991 24.3006 24.0317C24.4592 23.8642 24.5386 23.6659 24.5386 23.4367C24.5386 23.3486 24.5298 23.2692 24.5121 23.1987C24.4945 23.1282 24.4681 23.0577 24.4328 22.9872ZM7.6155 10.718C7.6155 9.90706 7.77415 9.14023 8.09146 8.41747C8.39114 7.69472 8.80981 7.06451 9.34747 6.52685C9.88513 5.98919 10.5153 5.57052 11.2381 5.27084C11.9608 4.95353 12.7277 4.79488 13.5386 4.79488C14.3495 4.79488 15.1163 4.95353 15.8391 5.27084C16.5618 5.57052 17.192 5.98919 17.7297 6.52685C18.2673 7.06451 18.686 7.69472 18.9857 8.41747C19.303 9.14023 19.4617 9.90706 19.4617 10.718C19.4617 11.5289 19.303 12.2957 18.9857 13.0184C18.686 13.7412 18.2673 14.3714 17.7297 14.9091C17.192 15.4467 16.5618 15.8654 15.8391 16.1651C15.1163 16.4824 14.3495 16.641 13.5386 16.641C12.7277 16.641 11.9608 16.4824 11.2381 16.1651C10.5153 15.8654 9.88513 15.4467 9.34747 14.9091C8.80981 14.3714 8.39114 13.7412 8.09146 13.0184C7.77415 12.2957 7.6155 11.5289 7.6155 10.718Z" fill="white"/>
</svg>
